<svg xmlns="http://www.w3.org/2000/svg" width="1024" height="1024" viewBox="0 0 1024 1024">
  <defs>
    <linearGradient id="background" x1="126" y1="92" x2="890" y2="932" gradientUnits="userSpaceOnUse">
      <stop offset="0" stop-color="#162B48"/>
      <stop offset="0.5" stop-color="#091727"/>
      <stop offset="1" stop-color="#030912"/>
    </linearGradient>
    <linearGradient id="key" x1="242" y1="280" x2="790" y2="758" gradientUnits="userSpaceOnUse">
      <stop offset="0" stop-color="#1B334A"/>
      <stop offset="1" stop-color="#08121E"/>
    </linearGradient>
    <linearGradient id="wave" x1="275" y1="520" x2="751" y2="520" gradientUnits="userSpaceOnUse">
      <stop offset="0" stop-color="#A8F7FF"/>
      <stop offset="0.45" stop-color="#31D9F5"/>
      <stop offset="1" stop-color="#4D8DFF"/>
    </linearGradient>
    <filter id="shadow" x="-30%" y="-30%" width="160%" height="170%">
      <feDropShadow dx="0" dy="34" stdDeviation="34" flood-color="#000814" flood-opacity="0.72"/>
    </filter>
    <filter id="glow" x="-60%" y="-100%" width="220%" height="300%">
      <feGaussianBlur stdDeviation="18" result="blur"/>
      <feMerge><feMergeNode in="blur"/><feMergeNode in="SourceGraphic"/></feMerge>
    </filter>
  </defs>

  <rect width="1024" height="1024" rx="224" fill="url(#background)"/>
  <path d="M105 658C234 369 431 155 777 113" fill="none" stroke="#2478A8" stroke-width="46" stroke-linecap="round" opacity="0.12"/>
  <path d="M181 853C390 679 600 601 879 614" fill="none" stroke="#32D6EE" stroke-width="30" stroke-linecap="round" opacity="0.08"/>

  <g filter="url(#shadow)">
    <rect x="176" y="205" width="672" height="614" rx="156" fill="url(#key)" stroke="#5A7794" stroke-opacity="0.42" stroke-width="7"/>
    <rect x="205" y="234" width="614" height="556" rx="130" fill="none" stroke="#CBEAFF" stroke-opacity="0.09" stroke-width="5"/>
  </g>

  <g opacity="0.38" filter="url(#glow)">
    <path d="M275 521H331L362 440L409 613L459 367L511 663L563 414L610 593L655 465L690 521H751" fill="none" stroke="#2DDCF5" stroke-width="34" stroke-linecap="round" stroke-linejoin="round"/>
  </g>
  <path d="M275 521H331L362 440L409 613L459 367L511 663L563 414L610 593L655 465L690 521H751" fill="none" stroke="url(#wave)" stroke-width="24" stroke-linecap="round" stroke-linejoin="round"/>

  <g transform="translate(724 269)" filter="url(#glow)">
    <path d="M0 52C38 45 47 36 53 0C60 36 69 45 106 52C69 60 60 69 53 105C47 69 38 60 0 52Z" fill="#B8FAFF"/>
    <circle cx="100" cy="3" r="10" fill="#55DDF7"/>
  </g>

  <path d="M300 713H724" stroke="#94BAD0" stroke-opacity="0.18" stroke-width="5" stroke-linecap="round"/>
  <circle cx="512" cy="713" r="8" fill="#79E9FA" opacity="0.7"/>
</svg>
